# xmcd CD database file
#
# Track frame offsets:
#	182
#	15360
#	29812
#	44962
#	58527
#	72210
#	86640
#	100312
#	116045
#	128375
#	143975
#	157382
#	171497
#	184955
#	199660
#	211472
#	224777
#	237740
#	250197
#	262830
#	278647
#	293202
#	307590
#
# Disc length: 4304 seconds
#
# Revision: 2
# Processed by: cddbd v1.5.2PL0 Copyright (c) Steve Scherf et al.
# Submitted via: CDex 1.51
#
DISCID=6a10ce17
DTITLE=Bessie Smith - Sings The Jazz  {1923-1933}
DYEAR=1993
DGENRE=Jazz
TTITLE0=There'll Be A Hot Time In The Old Town Tonight   [1927]
TTITLE1=I Ain't Got Nobody   [1925]
TTITLE2=Jazzbo Brown From Memphis Town   [1926]
TTITLE3=Lock And Key   [1927]
TTITLE4=Sweet Mistreater   [1927]
TTITLE5=Cake Walkin' Babies  (From Home)   [1925]
TTITLE6=Baby Doll   [1926]
TTITLE7=T'Ain't Nobody's Bizness If I Do   [1923]
TTITLE8=You've Got To Give Me Some   [1929]
TTITLE9=Careless Love Blues   [1925]
TTITLE10=Baby Won't You Please Come Home   [1923]
TTITLE11=Oh Daddy Blues   [1923]
TTITLE12=Alexander's Ragtime Band   [1927]
TTITLE13=Yes Indeed He Do   [1928]
TTITLE14=I Want Ev'Ry Bit Of It   [1926]
TTITLE15=After You've Gone   [1927]
TTITLE16=Squeeze Me   [1926]
TTITLE17=What's The Matter Now ¿   [1926]
TTITLE18=It Won't Be You   [1928]
TTITLE19=Keep It To Yourself   [1930]
TTITLE20=He's Got Me Goin'   [1929]
TTITLE21=Down In The Dumps   [1933]
TTITLE22=Do You Duty   [1933]
EXTD=YEAR: 1993
EXTT0=
EXTT1=
EXTT2=
EXTT3=
EXTT4=
EXTT5=
EXTT6=
EXTT7=
EXTT8=
EXTT9=
EXTT10=
EXTT11=
EXTT12=
EXTT13=
EXTT14=
EXTT15=
EXTT16=
EXTT17=
EXTT18=
EXTT19=
EXTT20=
EXTT21=
EXTT22=
PLAYORDER=
